<svg xmlns="http://www.w3.org/2000/svg" width="16" height="16"><g data-name="Group 5152"><path d="M8 16a7.938 7.938 0 0 1-4.4-1.323l-3.076.983 1-2.972A7.908 7.908 0 0 1 0 8a8.008 8.008 0 0 1 8-8 8.01 8.01 0 0 1 8 8 8.008 8.008 0 0 1-8 8zM5.026 3.723a1.149 1.149 0 0 0-.809.283l-.021.021a2.521 2.521 0 0 0-.787 1.9 4.344 4.344 0 0 0 .929 2.365l.009.013.038.054.01.015a9.351 9.351 0 0 0 3.886 3.4 6.76 6.76 0 0 0 2.315.646 1.986 1.986 0 0 0 .453-.053 2.232 2.232 0 0 0 1.552-1.113 1.977 1.977 0 0 0 .135-1.094c-.045-.077-.149-.127-.306-.2l-.047-.023-.089-.043-.026-.013c-.4-.2-1.355-.665-1.548-.732a.574.574 0 0 0-.2-.041.441.441 0 0 0-.365.211l-.082.115a7.738 7.738 0 0 1-.535.7.445.445 0 0 1-.33.134.6.6 0 0 1-.227-.046l-.023-.009-.047-.019a5.788 5.788 0 0 1-1.784-1.112 6.977 6.977 0 0 1-1.282-1.589.362.362 0 0 1 .087-.483l.007-.008c.066-.081.131-.15.194-.217l.007-.007c.045-.047.094-.1.143-.156l.024-.027a1.278 1.278 0 0 0 .232-.335.47.47 0 0 0-.033-.426c-.038-.081-.273-.649-.462-1.105l-.249-.6c-.15-.358-.262-.378-.5-.389a1.813 1.813 0 0 0-.268-.017z" data-name="Subtraction 1" fill="#fff"/></g></svg>